HIERARCHY
ROOT joint_Root
{
	OFFSET 0.0 0.0 0.0
	CHANNELS 6 Xposition Yposition Zposition Zrotation Xrotation Yrotation 
	JOINT Hips
	{
		OFFSET -0.726466 93.3139 -2.00062
		CHANNELS 6 Xposition Yposition Zposition Zrotation Xrotation Yrotation 
		JOINT Spine
		{
			OFFSET 15.7357 0.0 0.0
			CHANNELS 6 Xposition Yposition Zposition Zrotation Xrotation Yrotation 
			JOINT Chest
			{
				OFFSET 8.98455 -0.406207 0.0
				CHANNELS 6 Xposition Yposition Zposition Zrotation Xrotation Yrotation 
				JOINT Neck
				{
					OFFSET 16.3773 0.0 0.0
					CHANNELS 6 Xposition Yposition Zposition Zrotation Xrotation Yrotation 
					JOINT Head
					{
						OFFSET 6.45672 0.0 0.0
						CHANNELS 6 Xposition Yposition Zposition Zrotation Xrotation Yrotation 
						End Site
						{
							OFFSET 0.0 0.0 0.0
						}
					}
				}
				JOINT Shoulder_L
				{
					OFFSET 12.9942 -0.242716 4.98039
					CHANNELS 6 Xposition Yposition Zposition Zrotation Xrotation Yrotation 
					JOINT UpperArm_L
					{
						OFFSET 5.34809 0.0 0.0
						CHANNELS 6 Xposition Yposition Zposition Zrotation Xrotation Yrotation 
						JOINT LowerArm_L
						{
							OFFSET 24.3286 1.87007e-05 0.0
							CHANNELS 6 Xposition Yposition Zposition Zrotation Xrotation Yrotation 
							JOINT Hand_L
							{
								OFFSET 22.2916 0.0 0.0
								CHANNELS 6 Xposition Yposition Zposition Zrotation Xrotation Yrotation 
								End Site
								{
									OFFSET 0.0 0.0 0.0
								}
							}
						}
					}
				}
				JOINT Shoulder_R
				{
					OFFSET 12.9945 -0.242716 -4.98039
					CHANNELS 6 Xposition Yposition Zposition Zrotation Xrotation Yrotation 
					JOINT UpperArm_R
					{
						OFFSET -5.34813 0.0 0.0
						CHANNELS 6 Xposition Yposition Zposition Zrotation Xrotation Yrotation 
						JOINT LowerArm_R
						{
							OFFSET -24.3289 0.000322201 0.0
							CHANNELS 6 Xposition Yposition Zposition Zrotation Xrotation Yrotation 
							JOINT Hand_R
							{
								OFFSET -22.2915 -0.000108084 0.0
								CHANNELS 6 Xposition Yposition Zposition Zrotation Xrotation Yrotation 
								End Site
								{
									OFFSET 0.0 0.0 0.0
								}
							}
						}
					}
				}
			}
		}
		JOINT UpperLeg_L
		{
			OFFSET -2.19248 -6.46944 0.0
			CHANNELS 6 Xposition Yposition Zposition Zrotation Xrotation Yrotation 
			JOINT LowerLeg_L
			{
				OFFSET 39.0811 0.0 -1.23785e-05
				CHANNELS 6 Xposition Yposition Zposition Zrotation Xrotation Yrotation 
				JOINT Foot_L
				{
					OFFSET 40.9854 0.0 -1.26872e-05
					CHANNELS 6 Xposition Yposition Zposition Zrotation Xrotation Yrotation 
					JOINT Toes_L
					{
						OFFSET 11.7543 0.0 0.0
						CHANNELS 6 Xposition Yposition Zposition Zrotation Xrotation Yrotation 
						End Site
						{
							OFFSET 0.0 0.0 0.0
						}
					}
				}
			}
		}
		JOINT UpperLeg_R
		{
			OFFSET -2.19251 6.46944 0.0
			CHANNELS 6 Xposition Yposition Zposition Zrotation Xrotation Yrotation 
			JOINT LowerLeg_R
			{
				OFFSET -39.0811 -0.00228153 -0.0401928
				CHANNELS 6 Xposition Yposition Zposition Zrotation Xrotation Yrotation 
				JOINT Foot_R
				{
					OFFSET -40.9854 0.0 0.0
					CHANNELS 6 Xposition Yposition Zposition Zrotation Xrotation Yrotation 
					JOINT Toes_R
					{
						OFFSET -11.7543 0.0 0.0
						CHANNELS 6 Xposition Yposition Zposition Zrotation Xrotation Yrotation 
						End Site
						{
							OFFSET 0.0 0.0 0.0
						}
					}
				}
			}
		}
	}
}
MOTION
Frames:	6
Frame Time:	0.0333333
0.000000 0.000000 0.000000 0.000000 0.000000 -0.000000 -0.824218 92.365800 -1.805560 88.156900 -0.185222 4.785130 15.735700 0.000005 -0.000001 80.919000 86.127400 -80.352400 8.984550 -0.406207 -0.000000 -0.111344 -1.261060 1.131170 16.377300 -0.000001 -0.000001 4.732550 -2.059650 0.656846 6.456720 -0.000001 -0.000000 6.686040 -2.388690 -1.161850 12.994200 -0.242716 4.980390 -87.305300 -8.418120 -72.177200 5.348090 -0.000007 -0.000001 -85.986500 -30.259800 -91.890800 24.328600 0.000019 0.000005 10.437700 0.415623 -87.745100 22.291600 -0.000001 0.000005 22.435700 5.613440 -12.180900 12.994500 -0.242716 -4.980390 90.865100 -2.832490 -73.008700 -5.348130 -0.000001 -0.000004 -77.203000 -27.157600 -100.104000 -24.328900 0.000322 -0.000009 19.759100 3.353070 -80.753200 -22.291500 -0.000108 -0.000004 25.263200 5.433460 -4.058280 -2.192480 -6.469440 -0.000000 -175.576000 -6.289320 -2.503370 39.081100 -0.000007 -0.000012 -0.097717 0.232417 22.803800 40.985400 -0.000006 -0.000013 -0.275969 3.254000 -65.735900 11.754300 -0.000000 0.000003 -0.000037 -0.000438 -16.594600 -2.192510 6.469440 -0.000001 179.586000 15.525000 -179.169000 -39.081100 -0.002282 -0.040193 -0.002939 0.017904 19.276800 -40.985400 0.000008 0.000006 4.355850 5.955620 -65.839500 -11.754300 -0.000006 -0.000006 -0.006264 -0.073211 -19.552900
0.000000 0.000000 0.000000 0.000000 0.000000 -0.000000 -0.804603 92.356200 -1.777970 88.160000 -0.178689 4.827300 15.735700 0.000005 -0.000001 81.077400 86.107700 -80.510800 8.984550 -0.406207 -0.000000 -0.069078 -1.245830 1.131800 16.377300 -0.000001 -0.000001 4.748300 -2.017800 0.670103 6.456720 -0.000001 -0.000000 6.712140 -2.369250 -1.242730 12.994200 -0.242716 4.980390 -87.301800 -8.402960 -72.125700 5.348090 -0.000007 -0.000001 -86.055500 -30.287000 -91.953300 24.328600 0.000019 0.000005 10.329100 0.437615 -87.600400 22.291600 -0.000001 0.000005 22.285900 5.612140 -12.096500 12.994500 -0.242716 -4.980390 90.875200 -2.861490 -72.984900 -5.348130 -0.000001 -0.000004 -77.243600 -27.214500 -100.069000 -24.328900 0.000322 -0.000009 19.763700 3.365640 -80.721500 -22.291500 -0.000108 -0.000004 25.355700 5.433510 -4.059970 -2.192480 -6.469440 -0.000000 -175.586000 -6.308250 -2.462620 39.081100 -0.000007 -0.000012 -0.096792 0.229630 22.856100 40.985400 -0.000006 -0.000013 -0.256357 3.267220 -65.787800 11.754300 -0.000000 0.000003 -0.000037 -0.000430 -16.594300 -2.192510 6.469440 -0.000001 179.552000 15.516700 -179.135000 -39.081100 -0.002282 -0.040193 -0.003366 0.019061 19.335400 -40.985400 0.000008 0.000006 4.318620 5.944190 -65.880200 -11.754300 -0.000006 -0.000006 -0.006103 -0.071765 -19.493900
0.000000 0.000000 0.000000 0.000000 0.000000 -0.000000 -0.790783 92.359700 -1.781250 88.180600 -0.114022 4.812530 15.735700 0.000005 -0.000001 81.030400 86.104700 -80.475300 8.984550 -0.406207 -0.000000 -0.064281 -1.252250 1.108800 16.377300 -0.000001 -0.000001 4.757320 -1.987020 0.656961 6.456720 -0.000001 -0.000000 6.860710 -2.345730 -1.204470 12.994200 -0.242716 4.980390 -87.298200 -8.404690 -72.107000 5.348090 -0.000007 -0.000001 -86.012100 -30.343800 -91.922100 24.328600 0.000019 0.000005 10.207400 0.448481 -87.510900 22.291600 -0.000001 0.000005 22.261400 5.611870 -12.078900 12.994500 -0.242716 -4.980390 90.880500 -2.861230 -72.886300 -5.348130 -0.000001 -0.000004 -77.145900 -27.277800 -99.913900 -24.328900 0.000322 -0.000009 19.584500 3.347480 -80.680800 -22.291500 -0.000108 -0.000004 25.403700 5.436820 -4.174810 -2.192480 -6.469440 -0.000000 -175.616000 -6.278270 -2.472500 39.081100 -0.000007 -0.000012 -0.096812 0.230059 22.822000 40.985400 -0.000006 -0.000013 -0.250768 3.272170 -65.762900 11.754300 -0.000000 0.000003 -0.000034 -0.000406 -16.593400 -2.192510 6.469440 -0.000001 179.536000 15.523000 -179.135000 -39.081100 -0.002282 -0.040193 -0.001842 0.014734 19.317400 -40.985400 0.000008 0.000006 4.306300 5.897210 -65.874900 -11.754300 -0.000006 -0.000006 -0.006178 -0.072442 -19.521500
0.000000 0.000000 0.000000 0.000000 0.000000 -0.000000 -0.774852 92.358100 -1.781430 88.143400 -0.069227 4.789030 15.735700 0.000005 -0.000001 80.905000 86.092100 -80.335900 8.984550 -0.406207 -0.000000 -0.041687 -1.273920 1.137050 16.377300 -0.000001 -0.000001 4.764680 -1.983330 0.687506 6.456720 -0.000001 -0.000000 6.959110 -2.328350 -1.284110 12.994200 -0.242716 4.980390 -87.298500 -8.360170 -72.020000 5.348090 -0.000007 -0.000001 -85.831800 -30.419600 -91.709500 24.328600 0.000019 0.000005 10.114700 0.428002 -87.602300 22.291600 -0.000001 0.000005 22.301900 5.610830 -12.012000 12.994500 -0.242716 -4.980390 90.882400 -2.848560 -72.781000 -5.348130 -0.000001 -0.000004 -76.767700 -27.405700 -99.595400 -24.328900 0.000322 -0.000009 19.223600 3.271540 -80.706600 -22.291500 -0.000108 -0.000004 25.357700 5.434980 -4.110990 -2.192480 -6.469440 -0.000000 -175.596000 -6.241080 -2.535000 39.081100 -0.000007 -0.000012 -0.097036 0.230012 22.873600 40.985400 -0.000006 -0.000013 -0.226826 3.316100 -65.781500 11.754300 -0.000000 0.000003 -0.000043 -0.000491 -16.596700 -2.192510 6.469440 -0.000001 179.586000 15.511000 -179.168000 -39.081100 -0.002282 -0.040193 0.000461 0.008162 19.324500 -40.985400 0.000008 0.000006 4.408460 5.822850 -65.886500 -11.754300 -0.000006 -0.000006 -0.006260 -0.073179 -19.551600
0.000000 0.000000 0.000000 0.000000 0.000000 -0.000000 -0.731293 92.358800 -1.795320 88.179400 -0.090481 4.771250 15.735700 0.000005 -0.000001 81.106600 86.075800 -80.543600 8.984550 -0.406207 -0.000000 -0.005501 -1.251190 1.125310 16.377300 -0.000001 -0.000001 4.757360 -1.964890 0.683397 6.456720 -0.000001 -0.000000 7.018490 -2.277730 -1.314730 12.994200 -0.242716 4.980390 -87.304800 -8.291710 -71.922000 5.348090 -0.000007 -0.000001 -85.525900 -30.487900 -91.033800 24.328600 0.000019 0.000005 9.663520 0.313686 -88.158800 22.291600 -0.000001 0.000005 22.167600 5.609000 -11.895700 12.994500 -0.242716 -4.980390 90.859800 -2.750680 -72.634500 -5.348130 -0.000001 -0.000004 -75.912300 -27.669300 -98.869000 -24.328900 0.000322 -0.000009 18.715500 3.106630 -80.912800 -22.291500 -0.000108 -0.000004 25.092300 5.433260 -4.051310 -2.192480 -6.469440 -0.000000 -175.667000 -6.266690 -2.544890 39.081100 -0.000007 -0.000012 -0.095849 0.227433 22.852500 40.985400 -0.000006 -0.000013 -0.195153 3.304910 -65.770100 11.754300 -0.000000 0.000003 -0.000041 -0.000476 -16.596100 -2.192510 6.469440 -0.000001 179.522000 15.464600 -179.213000 -39.081100 -0.002282 -0.040193 -0.001448 0.013581 19.355100 -40.985400 0.000008 0.000006 4.309620 5.827920 -65.873400 -11.754300 -0.000006 -0.000006 -0.006248 -0.073075 -19.547300
0.000000 0.000000 0.000000 0.000000 0.000000 -0.000000 -0.705453 92.373200 -1.830910 88.158900 -0.118653 4.693230 15.735700 0.000005 -0.000001 81.187300 86.068400 -80.606000 8.984550 -0.406207 -0.000000 0.011128 -1.243700 1.162130 16.377300 -0.000001 -0.000001 4.632900 -1.920320 0.725219 6.456720 -0.000001 -0.000000 7.067940 -2.202280 -1.414870 12.994200 -0.242716 4.980390 -87.339200 -8.097060 -71.739900 5.348090 -0.000007 -0.000001 -84.875600 -30.470900 -89.481000 24.328600 0.000019 0.000005 8.726400 0.063576 -89.587400 22.291600 -0.000001 0.000005 21.706200 5.601800 -11.448400 12.994500 -0.242716 -4.980390 90.817900 -2.577340 -72.386900 -5.348130 -0.000001 -0.000004 -74.498900 -27.865300 -97.374400 -24.328900 0.000322 -0.000009 18.025100 2.734420 -81.661000 -22.291500 -0.000108 -0.000004 24.474200 5.423090 -3.702190 -2.192480 -6.469440 -0.000000 -175.672000 -6.320710 -2.617940 39.081100 -0.000007 -0.000012 -0.095258 0.226693 22.792500 40.985400 -0.000006 -0.000013 -0.178427 3.297380 -65.714600 11.754300 -0.000000 0.000003 -0.000037 -0.000438 -16.594600 -2.192510 6.469440 -0.000001 179.586000 15.394000 -179.296000 -39.081100 -0.002282 -0.040193 0.003328 -0.000014 19.292100 -40.985400 0.000008 0.000006 4.490550 5.759560 -65.833900 -11.754300 -0.000006 -0.000006 -0.006180 -0.072459 -19.522200
